<?xml version="1.0" encoding="UTF-8"?><svg id="Layer_2" xmlns="http://www.w3.org/2000/svg" viewBox="0 0 132 45.85"><defs><style>.cls-1{fill:#bd8b13;}</style></defs><g id="Layer_1-2"><polygon class="cls-1" points="70.45 4.15 72.21 2.38 73.82 4.01 73.98 4.15 72.21 5.92 70.45 4.15"/><polygon class="cls-1" points="73.99 4.15 75.75 2.38 77.36 4 77.52 4.15 75.75 5.92 73.99 4.15"/><path class="cls-1" d="m71.59,21.73c-.29,0-.57-.06-.82-.19-.67-.27-1.05-1.01-1.05-2.07,0-.12,0-.24.02-.36v-.28h-14.97V5.36c0-.57-.37-.73-.69-.9-.26-.14-.54-.28-.59-.67v-.21c1.33-1.01,2.52-2.18,3.55-3.49v16.46h12.7v-.65c-.02-.56-.06-1.74-2.84-1.76,0,0-1.3.02-2.59.02-.73,0-1.45-.01-1.95-.03-.8-.06-1.24-.95-1.25-1.75-.03-.48.18-.95.57-1.23l.19-.13.11.22c.25.48,1.3.7,3.29.7h.19c.78,0,1.69-.02,2.73-.05.06,0,.11,0,.17,0,3.36,0,3.74,2.92,3.75,4.17v.49h3.33v-4.98s.05-.36-.65-.74c-.29-.18-.49-.46-.56-.79,2.69-1.95,3.43-3.6,3.43-3.6v12.39h-5.57v.18c0,.74.14,1.71.58,2.04l.24.19-.26.16c-.32.21-.69.32-1.07.33Z"/><path class="cls-1" d="m44.85,20.71v-1.87h-7.67v-2.32h9.77v3.04s-.11.94,1.74.94c1.16,0,1.17-1.12,1.17-1.17v-5.4c0-.75-.5-.85-.87-.85h-11.81v-6.74s1.35,1.69,2.74,2.48c.22.14.1.51-.58.94-.14.08-.31.16-.31.35v.85h11.68c1.37.02,1.49,1.45,1.49,1.89v7.74s-.11,2.1-3.47,2.1c-4.12-.02-3.87-1.97-3.87-1.97Z"/><path class="cls-1" d="m91.24,18.83V0l.4.65s.3.48,1.49,1.52c.39.37.83.68,1.3.94.2.09.37.16.37.38v.19c-.05.39-.33.54-.59.68-.32.17-.62.33-.65.9-.04.43,0,13.58,0,13.58h-2.32Z"/><path class="cls-1" d="m80.25,21.26l2.36-2.37-2.85-2.81V.02s1.25,2.39,2.94,3.56v.18c-.04.28-.21.53-.47.65-.34.17-.55.53-.52.91-.03.41,0,9.4,0,9.55l2.38,2.46,2.36-2.46s.03-9.11,0-9.55c.02-.38-.18-.74-.52-.92-.26-.12-.44-.37-.47-.65v-.13c1.86-1.21,2.93-3.63,2.93-3.63v15.86l-2.87,3.03,2.37,2.39-3.81,3.83-3.83-3.84Zm3.83,1.59l1.58-1.59-1.58-1.6-1.6,1.6,1.6,1.59Z"/><path class="cls-1" d="m74.22,42.89l4.03-4.32v-8.55c0-.06.08-.13.08-.13l.58-.29v-.49h-5.41v.48l.56.36c.16.1.17.16.17.22v4.92h-10.82l-2.45,3.1v-7.99l.02-.15s.08-.07.13-.09l.51-.32.05-.03v-.49h-5.4v.48l.53.34s.08.06.13.08h0v14.69l-.03.19s-.06.07-.1.1l-.54.36v.47h5.41v-.48l-.56-.36s-.09-.05-.14-.08h0v-6.74l.58.18.75-.43c.1-.07.22-.12.34-.16.1-.03.2-.04.3-.04h11.28v5.17Z"/><path class="cls-1" d="m131.69,35.64c-.63-2-2.08-3.65-4.32-4.89-2.01-1.12-4.86-1.67-8.71-1.67h-14.71v.48s.62.41.64.41h0v1.74h14.04c2.84,0,4.92.38,6.17,1.12,2,1.17,2.98,2.69,2.99,4.65,0,.95-.26,1.87-.78,2.67-.59.86-1.4,1.54-2.34,2-1.36.71-3.43,1.06-6.16,1.06h-7.32v-10.28h-4.01v11.8l-.03.17s-.07.07-.11.11l-.48.31-.04.03v.48h12.01c2.31,0,4.12-.13,5.4-.39,1.64-.32,3.2-.96,4.6-1.88,1.34-.9,2.29-1.94,2.84-3.09.41-.86.62-1.81.62-2.77,0-.69-.11-1.38-.31-2.05Z"/><path class="cls-1" d="m78.9,45.19c-.08-.01-.15-.03-.22-.06l10.08-10.48-2.33-2.48-13.04,13.63h6v-.57h-.22c-.09,0-.18-.01-.28-.03Z"/><path class="cls-1" d="m87.51,31.51l2.59,2.73,2.66,2.68h-4.51l-2.47,2.58.53.37.58-.31c.05-.03.11-.04.16-.05h8.11l5.31,5.67s-.08.1-.54.1h-.22v.57h6l-15.91-16.76-2.31,2.42Z"/><path class="cls-1" d="m48.95,29.58l.54.35c.12.08.19.16.19.23v14.54l-.04.19s-.09.08-.15.12l-.55.35v.49h5.36v-.48l-.49-.35s-.08-.06-.12-.08h0v-14.91s.14-.11.14-.11l.49-.33v-.49h-5.36v.49Z"/><path class="cls-1" d="m26.48,42.62l-.71.41c-.1.06-.2.12-.31.16l-12,.03c-2.74,0-4.83-.36-6.19-1.06-2.07-1.08-3.07-2.6-3.08-4.68,0-.94.28-1.85.8-2.63,1.03-1.52,2.53-2.56,4.66-2.96.49-.08.98-.13,1.47-.13h6.18c.37-.02.31.07.33.11l-.07.43h.51l2.65-3.2h-7.38c-1.32-.02-2.65.04-3.96.16-.47.06-.94.14-1.4.25-1.23.28-2.41.74-3.5,1.36-1.81,1.02-3.11,2.32-3.84,3.86C.2,35.68-.01,36.68,0,37.68c0,2.7,1.45,4.85,4.32,6.4,1.35.73,2.81,1.22,4.33,1.46,1.6.22,3.21.32,4.83.29h11.16l2.66-3.23h-.22l-.59.02Z"/><path class="cls-1" d="m21.15,38.59l2.6-3.25H6.26l-1.76,2.63h15.77c.3.03.4.11.41.16l-.07.46h.54Z"/><path class="cls-1" d="m20.07,32.16l.5.17.07.02.76-.38c.19-.14.41-.21.64-.22h9.67v12.95l-.04.18s-.07.07-.12.1l-.55.36v.48h5.4v-.49l-.56-.33-.13-.12s0-.09,0-.14v-12.98h8.57c.33.04.37.11.37.12v.46h.48l2.67-3.24h-25.28l-2.44,3.06Z"/></g></svg>